<svg xmlns="http://www.w3.org/2000/svg" version="1" style="background-color:#FF8202" width="400" height="400" viewBox="0 0 400 400"><defs><linearGradient id="grad" x1="0%" y1="100%" x2="0%" y2="0%"><stop offset="0%" style="stop-color:#000;stop-opacity:.06"/><stop offset="100%" style="stop-color:#000;stop-opacity:0"/></linearGradient><linearGradient id="grad2" x1="100%" y1="0%" x2="0%" y2="0%"><stop offset="0%" style="stop-color:#000;stop-opacity:.1"/><stop offset="100%" style="stop-color:#000;stop-opacity:0"/></linearGradient><linearGradient id="grad3" x1="0%" y1="0%" x2="100%" y2="0%"><stop offset="0%" style="stop-color:#000;stop-opacity:.1"/><stop offset="100%" style="stop-color:#000;stop-opacity:0"/></linearGradient></defs><path fill="#FF9501" d="M0,40h50V400H0Z"/><path fill="#FFA726" d="M50,86h50V400H50Z"/><path fill="#FF9F00" d="M100,120h50V400h-50Z"/><path fill="#FF9100" d="M150,146h50V400h-50Z"/><path fill="#FF9920" d="M200,168h50V400h-50Z"/><path fill="#FF9100" d="M300,209h50V400h-50Z"/><path fill="#FFA726" d="M350,236h50V400h-50Z"/><path fill="url(#grad)" d="M247.5,192h55v4h-55Z"/><path fill="url(#grad2)" d="M247,196v402h3V196Z"/><path fill="url(#grad3)" d="M304,196v402h-4V196Z"/><path fill="#FF5722" d="M250,196h50V400h-50Z"/></svg>