<svg xmlns="http://www.w3.org/2000/svg" viewBox="0 0 512 512"><path d="M291.31 0c-11.725 0-22.114 5.715-28.536 14.51-3.386 4.638-10.16 4.638-13.547 0C242.804 5.715 232.415 0 220.69 0 141.24 0 26.483 97.103 26.483 308.966 26.483 467.862 150.07 512 203.035 512c19.58 0 36.678-10.624 45.844-26.42 3.155-5.44 11.086-5.44 14.24 0 9.168 15.796 26.266 26.42 45.846 26.42 52.966 0 176.552-44.138 176.552-203.034C485.518 97.103 370.758 0 291.31 0z" fill="#FFE1B4"/><g fill="#FFD4AA"><path d="M185.38 361.93s52.965 8.83 70.62-52.965v70.62l-44.138 8.83-26.483-26.484zM229.517 256s8.828-35.31-26.483-52.966H256v61.793h-8.828L229.517 256zM379.586 300.138s-44.138 8.828-35.31-26.483 26.483-52.966 26.483-97.103l-26.484 17.655-44.138 88.276 8.828 26.483 26.483 8.828 44.136-17.656z"/><path d="M357.517 494.345c-54.436 0-18.39-52.966-18.39-52.966-30.898-8.093 25.01-60.323 25.01-60.323l-11.033-27.954c-132.414-8.828-44.138-203.034-44.138-203.034-17.655-24.277-6.62-44.69-6.62-44.69-29.88-3.864-41.956-27.093-46.346-50.76V481.5c2.772 0 5.544 1.36 7.122 4.078C272.288 501.376 289.386 512 308.966 512c13.454 0 31.47-2.87 50.857-9.723-1.23-4.76-2.306-7.932-2.306-7.932zM229.517 450.207s-79.448 44.138-97.103-17.655l45.24 5.517s-65.838-28.69-50.39-102.99l-12.505.368s-39.173 5.517-44.14-52.966c0 0 26.116-5.15 34.944-40.46 0 0-67.678-54.805-12.138-129.47l9.195 4.045s-1.654 35.663 39.872 53.7l-1.25 6.253 8.828 26.483 23.896-32.724s-15.07-29.07 11.414-55.553l-29.432 14.716c5.892-21.51-11.976-42.563 2.95-50.026 17.655-8.828 17.655-26.483 17.655-26.483s0-21.045-.892-43.54C103.955 38.344 26.484 134.887 26.484 308.966 26.483 467.862 150.07 512 203.035 512c19.58 0 36.678-10.624 45.844-26.42 1.577-2.72 4.348-4.08 7.12-4.08v-40.12l-26.483 8.827z"/></g><g fill="#FFC8A0"><path d="M438.543 369.827c-27.314 5.47-53.847 4.01-74.25-3.84 2.182-2.573 4.188-5.348 5.983-8.34 2.508-4.182 1.155-9.604-3.026-12.114-4.19-2.508-9.603-1.146-12.113 3.026-13.707 22.86-46.155 29.792-69.62 23.3-4.854-1.344-20.69-6.672-20.69-18.758V194.206c0-1.44.404-35.31 35.31-35.31 4.878 0 8.827-3.948 8.827-8.828s-3.948-8.828-8.828-8.828c-15.81 0-27.22 4.94-35.31 12.066V94.69c13.077 11.52 29.1 18.267 32.03 19.44 1.07.43 2.182.628 3.277.628 3.5 0 6.82-2.094 8.2-5.55 1.81-4.527-.397-9.665-4.923-11.475-10-3.998-38.54-19.176-38.582-35.903V12.012c-.713.81-1.417 1.625-2.053 2.498-3.386 4.638-10.16 4.638-13.547 0-.637-.873-1.342-1.69-2.054-2.498v49.762c0 .007-.003.012-.003.02l.002.02c-.023 16.656-28.588 31.894-38.593 35.927-4.527 1.82-6.717 6.958-4.906 11.475 1.388 3.448 4.698 5.543 8.2 5.543 1.085 0 2.197-.2 3.266-.63 2.93-1.17 18.957-7.92 32.034-19.44v98.463c-11.54-5.844-27.932-8.085-48.086 1.987-4.362 2.182-6.13 7.482-3.948 11.844 2.182 4.363 7.49 6.113 11.844 3.95 22.965-11.495 35.893-.787 40.19 4.016v42.54c-.377-.332-.714-.712-1.103-1.03-8.094-6.63-22.44-13.622-44.766-9.113-17.906 3.543-34.62-2.974-41.74-16.267-7.5-14.026-2.25-31.62 14.405-48.285 3.447-3.447 3.447-9.034 0-12.482s-9.036-3.448-12.484 0c-2.76 2.76-5.27 5.576-7.543 8.43-3.655-14.866-4.433-40.59 26.56-56.085 4.362-2.182 6.13-7.482 3.948-11.844-2.18-4.363-7.48-6.113-11.843-3.95-2.737 1.37-5.22 2.823-7.592 4.31-1.437-12.415 1.34-34.41 33.143-50.31 4.362-2.18 6.13-7.48 3.948-11.843-2.19-4.362-7.49-6.12-11.844-3.948-3.3 1.65-6.268 3.39-9.098 5.16-1.942-5.8-3.686-14.47-1.05-23.523 2.828-9.726 10.2-18.093 21.918-24.95-11.53 2.04-23.498 5.91-35.542 11.71-1.323 2.68-2.492 5.424-3.33 8.3-4.935 16.962.166 32.39 3.478 39.85-24.7 24.263-19.49 52.976-16.902 62.183-12.018 13.407-15.114 28.57-15.114 40.615 0 18.422 7.242 33.12 7.552 33.74.08.16.21.276.297.43-.57 1.486-1.075 2.973-1.516 4.46-3.036.076-32.994 2.067-52.046 49.68-7.923 19.81-25.095 25.327-37.68 22.094-8.482-2.19-17.21-9.012-21.936-21.325-.928 8.948-1.575 18.208-2.045 27.656 6.054 5.384 12.85 9.03 19.575 10.765 3.975 1.026 7.948 1.526 11.862 1.526 19.905-.008 38.103-12.87 46.62-34.163 11.955-29.888 27.438-36.628 33.528-38.145.452 6.33 2.076 12.49 5.17 18.275 2.45 4.577 5.68 8.558 9.38 12.043-9.78 6.712-23.23 18.75-29.335 37.07-1.543 4.628.957 9.63 5.578 11.163.93.31 1.87.457 2.793.457 3.7 0 7.138-2.336 8.37-6.035 6.26-18.766 23.77-29.26 29.315-32.183 10.39 4.035 22.387 5.188 34.668 2.735 12.484-2.5 22.64-.664 30.104 5.45 7.818 6.41 12.3 17.35 12.3 30.032v52.965c0 13.345-6.13 24.01-15.604 27.172-9.673 3.172-20.94-2.336-30.302-14.81-1.732-2.31-3.595-6.035-5.57-9.974-9.25-18.508-26.507-52.99-84.413-28.156-42.76 18.337-72.764 20.888-83.602 7.428.734 8.03 1.828 15.7 3.21 23.073 16.608 5.956 43.553 4.495 87.34-14.278 42.664-18.26 52.31 1.103 61.68 19.828 2.337 4.672 4.544 9.086 7.234 12.664 11.095 14.793 24.99 22.81 38.76 22.81 3.775 0 7.542-.604 11.24-1.836 3.662-1.22 6.98-3.082 10.027-5.325v37.42c-8.426 8.835-42.26 40.998-90.182 42.993-31.04 1.387-62.077-10.406-92.644-34.49 14.646 20.064 32.214 35.317 50.338 46.605 12.456 3.603 24.983 5.634 37.574 5.634 1.818 0 3.647-.034 5.474-.113 40.776-1.693 71.988-21.925 89.44-36.538v34.914c.564-.853 1.192-1.66 1.706-2.548 3.155-5.438 11.087-5.438 14.242 0 .514.887 1.143 1.694 1.706 2.548v-40.018c11.266 5.767 28.196 12.34 46.944 12.34 4.595 0 9.293-.396 14.044-1.293 16.834-3.183 31.453-12.177 43.694-26.622 1.834.478 5.242 1.228 9.702 1.72-7.54 61.417-57.645 74.297-78.695 77.006 2.76.443 5.565.74 8.45.74 15.017 0 35.715-3.563 57.66-12.27 15.033-14.136 27.25-34.915 30.478-65.587 19.777-2.42 45.14-13.585 61.207-51.07 6.514-1.934 12.82-4.27 18.625-6.87 1.99-7.204 3.636-14.787 4.966-22.7-7.036 5.025-21.756 12.004-43.36 16.324zm-58.458 46.896c.753-3.53-.642-7.292-3.874-9.31-4.137-2.603-9.586-1.336-12.162 2.802-11.147 17.827-25.078 28.448-41.414 31.577-24.602 4.685-48.908-8.434-57.806-13.983v-45.872c4.58 2.854 9.876 5.24 15.982 6.932 6.99 1.94 14.664 2.957 22.543 2.957 15.816 0 32.473-4.09 46.222-12.982 18.488 9.137 38.566 11.956 56.235 11.956 11.345 0 21.617-1.16 29.924-2.537-18.124 29.56-43.716 30.162-55.65 28.46z"/><path d="M115.534 124.44c2.983 0 6.232-.32 9.784-1.027 4.776-.957 7.88-5.603 6.922-10.388-.948-4.776-5.55-7.923-10.388-6.922-7.758 1.56-13.397.518-17.267-3.138-6.996-6.602-8.35-21.055-8.162-31.225-5.362 6.806-10.55 14.08-15.506 21.89 1.505 6.405 3.89 12.76 7.916 18.053-20.855 46.562 9.463 78.51 10.777 79.86 1.725 1.768 4.01 2.655 6.293 2.655 2.207 0 4.414-.828 6.13-2.483 3.5-3.37 3.604-8.948.25-12.466-.92-.972-21.654-23.432-8.716-56.894 3.413 1.205 7.28 2.083 11.967 2.083zM392.804 120.266c-2.315-19.66-13.63-38.56-33.89-56.292-3.663-3.207-9.233-2.854-12.457.836-3.207 3.663-2.836 9.24.836 12.457 19.43 17 28.966 34.57 28.345 52.215-.647 18.228-11.96 33.176-19.966 41.55-1.036-2.593-2.238-5.203-3.828-7.852-2.508-4.172-7.923-5.535-12.113-3.026-4.18 2.508-5.534 7.932-3.025 12.113 11.767 19.604.32 36.242-19.932 61.302-12.518 15.5-25.465 31.533-25.465 48.913 0 17.517 11.233 33.483 28.62 40.69 6.544 2.707 13.337 4.034 20.182 4.034 10.217 0 20.525-2.997 30.212-8.728 19.413 9 46.633 16.097 72.477 16.097 15.234 0 29.9-2.54 42.168-8.527.328-5.556.546-11.218.546-17.084 0-1.347-.058-2.635-.067-3.972-22.194 18.248-68.107 12.96-99.37 1.005 3.12-3.468 3.083-8.767-.252-12.103-3.448-3.448-9.035-3.448-12.483 0-14.302 14.302-31.767 19.13-46.655 12.966-10.767-4.466-17.725-14.035-17.725-24.38 0-11.138 10.465-24.104 21.55-37.818 12.24-15.155 26.498-32.84 28.333-52.574 3.532-2.745 27.375-22.316 33.15-51.623 7.105-2.883 13.035-6.638 17.995-10.964 7.678 29.43-10.14 48.786-11.055 49.747-3.37 3.49-3.293 9.06.19 12.448 1.716 1.673 3.94 2.508 6.164 2.508 2.292 0 4.594-.888 6.318-2.664 1.297-1.33 30.795-32.52 11.464-78.13 3.725-6.604 6.046-13.603 7.542-20.49-5-7.827-10.233-15.122-15.644-21.934.5 12.317-1.453 36.386-22.166 49.278zM110.724 414.888c18.05 18.983 35.258 37.078 61.207 37.078 4.872 0 10.045-.638 15.587-2.026 4.733-1.18 7.612-5.974 6.422-10.698-1.182-4.733-5.975-7.638-10.7-6.422-23.947 5.93-37.62-6.862-59.723-30.094-3.647-3.837-7.396-7.776-11.345-11.724-13.24-13.24-34.268-13.784-52.82-14.268-10.513-.275-18.934-.717-24.787-2.367 1.76 6.603 3.82 12.87 6.076 18.905 5.987.713 12.218.95 18.256 1.108 15.99.414 32.534.845 40.793 9.103 3.836 3.836 7.49 7.68 11.034 11.405z"/><path d="M438.457 210.138c-4.604 1.594-7.052 6.63-5.457 11.233 1.267 3.657 4.69 5.94 8.345 5.94.957 0 1.93-.155 2.888-.482 14.38-4.978 23.953-14.024 30.382-24.002-2.11-9.577-4.523-18.758-7.157-27.628-3.366 12.84-11.123 28.75-29 34.94zM396.242 237.732c-18.008-1.224-31.18 11.482-31.724 12.025-3.43 3.43-3.423 8.957-.025 12.414 3.405 3.458 8.974 3.51 12.466.114.076-.07 8.344-7.81 18.172-6.93 7.37.576 14.612 5.55 21.535 14.766 12.664 16.888 29.07 26.276 44.543 26.276 4.672 0 9.267-.862 13.646-2.63 3.78-1.526 7.172-3.67 10.23-6.285-.387-10.23-1.084-20.136-2.004-29.793-3.217 10.883-8.86 17.294-14.838 19.71-11.164 4.517-25.897-2.475-37.457-17.864-10.166-13.56-21.796-20.895-34.545-21.8zM67 226.828c.957.328 1.93.483 2.888.483 3.656 0 7.078-2.292 8.345-5.94 1.594-4.61-.853-9.637-5.457-11.232-17.43-6.03-25.132-20.99-28.628-33.562-2.556 8.728-4.897 17.754-6.946 27.16 6.43 9.615 15.862 18.27 29.798 23.092z"/></g><circle cx="229.517" cy="132.414" r="17.655" fill="#C7CFE2"/><path d="M220.69 132.414v61.793c0 4.875 3.953 8.828 8.828 8.828s8.828-3.953 8.828-8.828v-61.793c0-4.875-3.953-8.828-8.828-8.828-4.876 0-8.828 3.953-8.828 8.828z" fill="#959CB3"/><circle cx="282.483" cy="132.414" r="17.655" fill="#C7CFE2"/><path d="M273.655 132.414v61.793c0 4.875 3.953 8.828 8.828 8.828s8.828-3.953 8.828-8.828v-61.793c0-4.875-3.952-8.828-8.827-8.828s-8.828 3.953-8.828 8.828z" fill="#959CB3"/><circle cx="123.586" cy="291.31" r="17.655" fill="#C7CFE2"/><path d="M123.586 300.138h61.793c4.874 0 8.827-3.953 8.827-8.828s-3.953-8.828-8.828-8.828h-61.794c-4.875 0-8.828 3.953-8.828 8.828s3.953 8.828 8.828 8.828z" fill="#959CB3"/><circle cx="123.586" cy="238.345" r="17.655" fill="#C7CFE2"/><path d="M123.586 247.172h61.793c4.874 0 8.827-3.953 8.827-8.828s-3.953-8.828-8.828-8.828h-61.794c-4.875 0-8.828 3.953-8.828 8.828 0 4.876 3.953 8.828 8.828 8.828z" fill="#959CB3"/><circle cx="388.414" cy="238.345" r="17.655" fill="#C7CFE2"/><path d="M388.414 229.517H326.62c-4.874 0-8.827 3.953-8.827 8.828s3.953 8.828 8.828 8.828h61.794c4.875 0 8.828-3.953 8.828-8.828s-3.953-8.828-8.828-8.828z" fill="#959CB3"/><circle cx="141.241" cy="185.379" r="17.655" fill="#C7CFE2"/><path d="M141.24 194.207h61.794c4.875 0 8.828-3.953 8.828-8.828 0-4.876-3.953-8.83-8.828-8.83H141.24c-4.874 0-8.827 3.954-8.827 8.83 0 4.874 3.953 8.827 8.828 8.827z" fill="#959CB3"/><circle cx="370.759" cy="185.379" r="17.655" fill="#C7CFE2"/><path d="M370.76 176.552h-61.794c-4.875 0-8.828 3.953-8.828 8.828s3.953 8.828 8.828 8.828h61.793c4.874 0 8.827-3.953 8.827-8.828 0-4.876-3.953-8.828-8.828-8.828z" fill="#959CB3"/><circle cx="141.241" cy="344.276" r="17.655" fill="#C7CFE2"/><path d="M141.24 353.103h61.794c4.875 0 8.828-3.953 8.828-8.828s-3.953-8.828-8.828-8.828H141.24c-4.874 0-8.827 3.953-8.827 8.828 0 4.876 3.953 8.828 8.828 8.828z" fill="#959CB3"/><circle cx="370.759" cy="344.276" r="17.655" fill="#C7CFE2"/><path d="M370.76 335.448h-61.794c-4.875 0-8.828 3.953-8.828 8.828s3.953 8.828 8.828 8.828h61.793c4.874 0 8.827-3.953 8.827-8.828s-3.953-8.828-8.828-8.828z" fill="#959CB3"/><circle cx="388.414" cy="291.31" r="17.655" fill="#C7CFE2"/><path d="M388.414 282.483H326.62c-4.874 0-8.827 3.953-8.827 8.828 0 4.876 3.953 8.83 8.828 8.83h61.794c4.875 0 8.828-3.954 8.828-8.83 0-4.875-3.953-8.827-8.828-8.827z" fill="#959CB3"/><path d="M335.448 353.103H176.552c-4.875 0-8.828-3.953-8.828-8.828V185.38c0-4.876 3.953-8.83 8.828-8.83H335.45c4.874 0 8.827 3.954 8.827 8.83v158.896c0 4.875-3.954 8.827-8.83 8.827z" fill="#96E17D"/><path d="M317.793 273.655c4.875 0 8.828-3.953 8.828-8.828S322.67 256 317.794 256H291.31v-8.828h26.483c4.875 0 8.828-3.953 8.828-8.828s-3.952-8.828-8.827-8.828H291.31v-26.483c0-4.875-3.953-8.828-8.828-8.828s-8.828 3.953-8.828 8.828v26.483h-8.828v-26.483c0-4.875-3.953-8.828-8.828-8.828s-8.828 3.953-8.828 8.828v26.483h-8.828v-26.483c0-4.875-3.953-8.828-8.828-8.828s-8.828 3.953-8.828 8.828v26.483h-26.483c-4.875 0-8.828 3.953-8.828 8.828s3.953 8.828 8.828 8.828h26.483V256h-26.483c-4.875 0-8.828 3.953-8.828 8.828s3.953 8.828 8.828 8.828h26.483v8.828h-26.483c-4.875 0-8.828 3.953-8.828 8.828s3.953 8.828 8.828 8.828h26.483v26.483c0 4.875 3.953 8.828 8.828 8.828s8.828-3.952 8.828-8.827V300.14h8.828v26.483c0 4.875 3.953 8.828 8.828 8.828s8.828-3.952 8.828-8.827V300.14h8.828v26.483c0 4.875 3.953 8.828 8.828 8.828s8.828-3.952 8.828-8.827V300.14h26.483c4.875 0 8.828-3.953 8.828-8.828s-3.952-8.828-8.827-8.828H291.31v-8.828h26.483z" fill="#959CB3"/><path d="M300.138 317.793h-88.276c-4.875 0-8.828-3.953-8.828-8.828V220.69c0-4.875 3.953-8.828 8.828-8.828h88.276c4.875 0 8.828 3.953 8.828 8.828v88.276c0 4.875-3.953 8.827-8.828 8.827z" fill="#5B5D6E"/><circle cx="225.103" cy="233.931" r="13.241" fill="#464655"/><path d="M220.69 512c-4.875 0-8.828-3.953-8.828-8.828v-150.07h17.655v150.07c0 4.875-3.952 8.828-8.827 8.828z" fill="#00D2FF"/><path d="M256 512c-4.875 0-8.828-3.953-8.828-8.828v-150.07h17.655v150.07c0 4.875-3.952 8.828-8.827 8.828z" fill="#FF6464"/><path d="M291.31 512c-4.875 0-8.828-3.953-8.828-8.828v-150.07h17.655v150.07c0 4.875-3.952 8.828-8.827 8.828z" fill="#96E17D"/><g fill="#959CB3"><path d="M282.483 361.93h17.655v26.484h-17.655zM247.172 361.93h17.655v26.484h-17.655zM211.862 361.93h17.655v26.484h-17.655z"/></g><path d="M300.138 370.76h-88.276c-4.875 0-8.828-3.954-8.828-8.83v-8.827h105.93v8.828c.002 4.876-3.95 8.83-8.826 8.83z" fill="#5B5D6E"/><g fill="#6EC864"><circle cx="185.379" cy="194.207" r="8.828"/><circle cx="326.621" cy="194.207" r="8.828"/><circle cx="185.379" cy="335.448" r="8.828"/><circle cx="326.621" cy="335.448" r="8.828"/></g></svg>