<svg xmlns="http://www.w3.org/2000/svg" viewBox="0 0 504.123 504.123"><circle cx="252.062" cy="252.062" r="252.062" fill="#FF7058"/><path d="M387.938 359.582H116.185c-11.422 0-20.874-9.452-20.874-20.874V165.022c0-11.422 9.453-20.874 20.875-20.874h272.148c11.422 0 20.874 9.452 20.874 20.874v173.686c-.395 11.815-9.847 20.874-21.27 20.874z" fill="#FFD05B"/><g fill="#324A5E"><path d="M95.31 179.2h313.503v47.655H95.31zM129.575 257.97h89.403v16.934h-89.403z"/></g><path fill="#FFD05B" d="M317.046 271.754h65.772v65.772h-65.772z"/><g fill="#F9B54C"><path d="M352.492 278.45v18.51h-16.147v-25.206h-3.94v33.87h-15.36v3.94h19.3v-8.666h20.086v-18.51h26.388v-3.94M361.945 315.47H346.19v-7.876h-3.938v14.966h-25.206v3.938h29.145v-7.09h13.785v17.724h3.94V319.41h18.903v-3.94h-18.904"/></g><path fill="#324A5E" d="M387.15 240.64v22.843l16.542-11.42"/><g fill="#FFF"><path d="M116.185 325.71h25.994v12.604h-25.995zM116.185 294.99h73.65v13.392h-73.65zM163.84 325.71h25.994v12.604H163.84z"/></g><g fill="#84DBFF"><path d="M211.495 329.65h25.994v7.876h-25.995zM259.15 329.65h25.995v7.876H259.15z"/></g><path d="M272.148 424.172L79.95 231.975c-8.27-8.27-8.27-21.268 0-29.145L202.83 79.95c8.272-8.27 21.27-8.27 29.146 0l192.197 192.197c8.27 8.27 8.27 21.268 0 29.145l-122.88 122.88c-7.878 8.27-20.875 8.27-29.145 0z" fill="#4CDBC4"/><path fill="#324A5E" d="M380.79 344.85L159.113 123.175l33.697-33.697 221.676 221.676z"/><path fill="#F1543F" d="M212.12 244.76l-72.406-72.408 11.974-11.975 72.407 72.407z"/><path fill="#FFF" d="M284.303 405.22l-46.507-46.506 46.507-46.508 46.508 46.508z"/><g fill="#ACB3BA"><path d="M304.443 341.858l-12.997 12.997-11.42-11.42 17.722-18.118-2.757-2.757-24.024 24.418-10.634-11.027-2.757 2.758 13.39 13.784 6.303-6.3 14.178 14.177 12.997-12.998 18.51 18.51 2.758-2.756M284.75 374.942l-11.027-11.422 5.514-5.514-2.757-2.757-10.634 10.633-17.723-17.723-2.757 2.757 20.48 20.48 5.12-5.12 9.846 9.846-12.603 12.603 2.756 2.757 12.603-12.603 13.39 13.39 2.757-2.756-13.39-13.39"/></g><path fill="#FFF" d="M355.643 339.495l-16.148 16.148 19.693 3.545"/><g fill="#324A5E"><path d="M104.594 207.537l18.38 18.38-8.91 8.912-18.38-18.382zM124.52 187.754l52.076 52.077-8.075 8.076-52.077-52.077zM138.574 241.283l18.38 18.38-8.91 8.912-18.38-18.38zM181.716 301.987l-18.38-18.38 8.912-8.912 18.38 18.38zM224.01 327.077l-8.91 8.912-18.38-18.382 8.91-8.91z"/></g></svg>