<svg xmlns="http://www.w3.org/2000/svg" viewBox="0 0 120.181 102.036" fill="#A9FD00"><path fill="#FFF" d="M48.372 56.137H60.89L72.044 37.6h-34.86L25.69 18.54h57.825L94.668 0H9.27C5.926 0 2.843 1.8 1.2 4.716c-1.644 2.907-1.593 6.482.134 9.343l50.38 83.5c1.678 2.78 4.69 4.476 7.938 4.476 3.246 0 6.257-1.695 7.935-4.476l2.898-4.804-22.11-36.62z"/><path d="M93.575 18.54h.03v.003l21.653.004 2.705-4.488c1.727-2.862 1.778-6.437.133-9.344C116.454 1.8 113.37 0 110.026 0h-5.294L93.575 18.54zM88.29 27.356l-23.565 39.13L75.52 84.404l34.422-57.048"/></svg>