<svg xmlns="http://www.w3.org/2000/svg" viewBox="0 0 496.2 496.2"><path d="M496.2 248.1C496.2 111.1 385.1 0 248.1 0S0 111.1 0 248.1s111.1 248.1 248.1 248.1 248.1-111.1 248.1-248.1z" fill="#A3D5E0"/><path d="M248.1 496.2c70.2 0 133.6-29.2 178.7-76-2.8-15.1-5.6-28.9-8.3-37.4-8.5-27.3-81.2-49.3-170.8-49.3s-161.5 22-170 49.3c-2.6 8.5-5.5 22.2-8.3 37.4 45.1 46.8 108.5 76 178.7 76z" fill="#0D0F0F"/><path d="M353.1 311.1c-24.6-20.7-70.9 5-104.9 5s-80.3-25.7-104.9-5c-16 13.4-14 52.7 23.5 63.5 58.1 16.8 79.5 25.2 81.4 25.9v.1h.2v-.1c1.9-.7 23.2-9.2 81.4-25.9 37.3-10.8 39.3-50.1 23.3-63.5z" fill="#172023"/><path d="M287 282.1h-77.8c12.1 36.6 1 53.3 1 53.3s11.9 13.2 37.9 13.2 37.9-13.2 37.9-13.2-11.1-16.7 1-53.3z" fill="#E2A379"/><path d="M336.4 175.2c0-92.4-39.5-113.6-88.3-113.6-48.7 0-88.3 21.2-88.3 113.6 0 31.3 6.2 55.8 15.5 74.7 20.4 41.6 55.7 56.1 72.8 56.1s52.4-14.5 72.8-56.1c9.3-18.9 15.5-43.4 15.5-74.7z" fill="#F4B382"/><path d="M336.4 175.2s-15.9 56.2-44 56.2c-24.8 0-34-9.3-44.3-9.3s-19.5 9.3-44.3 9.3c-24.7 0-44-56.2-44-56.2 0 31.3 6.2 55.8 15.5 74.7 20.4 41.6 55.7 56.1 72.8 56.1s52.4-14.5 72.8-56.1c9.3-18.9 15.5-43.4 15.5-74.7z" fill="#BC8A68"/><g fill="#F4B382"><path d="M170.4 238.7c-8.4 1.4-14.4.1-19.1-27.7s1.7-31.5 10.1-32.9l9 60.6zM325.9 238.7c8.4 1.4 14.3.1 19.1-27.7 4.8-27.8-1.7-31.5-10.1-32.9l-9 60.6z"/></g><g fill="#47200D"><path d="M336.4 175.2c0-92.4-30.3-116.1-88.3-116.1s-88.3 23.7-88.3 116.1c0 0 16.3-34.1 28.3-53.1s38-18.3 38-18.3h49s27 .3 34.5 18.3l26.8 53.1z"/><path d="M165.5 140.8c-4.2 10.9-5.6 24.4-5.6 37.5 0 0 8.8-1.9 8.8 2.6l2.8 27.6 3.9-1.9c-.2-23 4.9-83.5 4.9-83.5l-14.8 17.7zM330.8 140.8c4.2 10.9 5.6 24.4 5.6 37.5 0 0-8.8-1.9-8.8 2.6l-2.8 27.6-3.9-1.9c.2-23-4.9-81.7-4.9-81.7l14.8 15.9z"/></g><path d="M336.8 193.3s-30 31-52.7 31-23.5-10.2-36-10.2-13.8 10.2-35.2 10.2-53.5-31-53.5-31v-14h177.5v14h-.1z" fill="#2D2D2D"/><g fill="#F4B382"><ellipse cx="278" cy="200.4" rx="17.7" ry="12.2"/><ellipse cx="218.2" cy="200.4" rx="17.7" ry="12.2"/></g><g fill="#3A3A3A"><path d="M341.4 166.8c0-90.5-41.8-111.3-93.3-111.3s-93.3 20.7-93.3 111.3h186.6z"/><ellipse cx="248.1" cy="56.4" rx="12.8" ry="8.7"/></g><g fill="#494949"><path d="M209.5 156c-.9 0-1.5-.7-1.5-1.5 0-48 7.2-76.6 22-87.6.7-.5 1.6-.4 2.2.3.5.7.4 1.6-.3 2.2-14 10.4-20.7 38.2-20.7 85.1-.1.8-.8 1.5-1.7 1.5zM286.7 156c-.9 0-1.5-.7-1.5-1.5 0-46.9-6.8-74.8-20.7-85.1-.7-.5-.8-1.5-.3-2.2s1.5-.8 2.2-.3c14.8 11 22 39.7 22 87.6-.2.8-.9 1.5-1.7 1.5zM248.1 130.3c-.9 0-1.5-.7-1.5-1.5V64.1c0-.9.7-1.5 1.5-1.5s1.5.7 1.5 1.5v64.7c0 .8-.6 1.5-1.5 1.5zM321.4 156.4c-.9 0-1.5-.7-1.5-1.5 0-47-13.1-75-40-85.4-.8-.3-1.2-1.2-.9-2 .3-.8 1.2-1.2 2-.9 28.2 10.9 41.9 39.8 41.9 88.2 0 .9-.7 1.6-1.5 1.6zM174.8 156.4c-.9 0-1.5-.7-1.5-1.5 0-48.5 13.7-77.3 41.9-88.2.8-.3 1.7.1 2 .9s-.1 1.7-.9 2c-26.9 10.4-40 38.3-40 85.4.1.7-.6 1.4-1.5 1.4z"/></g><path d="M354.3 173.9c0 6.4-5.2 11.6-11.6 11.6 0 0-38.2-15.5-94.7-15.5s-94.7 15.5-94.7 15.5c-6.4 0-11.6-5.2-11.6-11.6v-23c0-6.4 5.2-11.6 11.6-11.6 0 0 48.2-15.5 94.7-15.5s94.7 15.5 94.7 15.5c6.4 0 11.6 5.2 11.6 11.6v23z" fill="#2D2D2D"/><g fill="#3A3A3A"><path d="M157.6 177.1c-.8 0-1.5-.7-1.5-1.5v-28.5c0-.8.7-1.5 1.5-1.5s1.5.7 1.5 1.5v28.5c0 .8-.7 1.5-1.5 1.5zM173.1 173.8c-.8 0-1.5-.7-1.5-1.5v-28.5c0-.8.7-1.5 1.5-1.5s1.5.7 1.5 1.5v28.5c0 .8-.7 1.5-1.5 1.5zM192.2 169.8c-.8 0-1.5-.7-1.5-1.5v-28.5c0-.8.7-1.5 1.5-1.5s1.5.7 1.5 1.5v28.5c0 .8-.7 1.5-1.5 1.5zM211.2 166.4c-.8 0-1.5-.7-1.5-1.5v-28.5c0-.8.7-1.5 1.5-1.5s1.5.7 1.5 1.5v28.5c0 .9-.7 1.5-1.5 1.5zM230.3 164.4c-.8 0-1.5-.7-1.5-1.5v-28.5c0-.8.7-1.5 1.5-1.5s1.5.7 1.5 1.5v28.5c0 .9-.7 1.5-1.5 1.5zM248.1 164.3c-.8 0-1.5-.7-1.5-1.5v-28.5c0-.8.7-1.5 1.5-1.5s1.5.7 1.5 1.5v28.5c0 .8-.7 1.5-1.5 1.5zM338.7 177.1c.8 0 1.5-.7 1.5-1.5v-28.5c0-.8-.7-1.5-1.5-1.5s-1.5.7-1.5 1.5v28.5c0 .8.7 1.5 1.5 1.5zM323.2 173.8c.8 0 1.5-.7 1.5-1.5v-28.5c0-.8-.7-1.5-1.5-1.5s-1.5.7-1.5 1.5v28.5c0 .8.7 1.5 1.5 1.5zM304.1 169.8c.8 0 1.5-.7 1.5-1.5v-28.5c0-.8-.7-1.5-1.5-1.5s-1.5.7-1.5 1.5v28.5c0 .8.7 1.5 1.5 1.5zM285.1 166.4c.8 0 1.5-.7 1.5-1.5v-28.5c0-.8-.7-1.5-1.5-1.5s-1.5.7-1.5 1.5v28.5c0 .9.6 1.5 1.5 1.5zM266 164.4c.8 0 1.5-.7 1.5-1.5v-28.5c0-.8-.7-1.5-1.5-1.5s-1.5.7-1.5 1.5v28.5c0 .9.7 1.5 1.5 1.5z"/></g><g fill="#FFF"><path d="M311.5 337.4zM298.5 335.9z"/></g></svg>